<?xml version="1.0" encoding="UTF-8"?>
<svg width="93px" height="94px" viewBox="0 0 93 94" version="1.1" xmlns="http://www.w3.org/2000/svg" xmlns:xlink="http://www.w3.org/1999/xlink">
    <title>Regular-S</title>
    <g id="Page-1" stroke="none" stroke-width="1" fill="none" fill-rule="evenodd">
        <g id="person.circle" transform="translate(-1404, -613)" fill="#D8D8D8" stroke="#D8D8D8">
            <g id="Regular-S" transform="translate(1404, 614)">
                <path d="M46.2116831,0.347826087 C71.4998722,0.347826087 92,20.7870006 92,46 C92,71.2129994 71.4998722,91.6521739 46.2116831,91.6521739 C45.588603,91.6521739 44.9684296,91.6397655 44.3513981,91.615183 L44.3736654,91.6282689 C35.0205106,85.9300482 35.8968885,70.3530492 37.1830009,64.6466626 L36.769715,64.6662015 C33.1822118,64.794694 24.5824329,64.1527744 24.9297893,62.0747091 L24.9790784,61.8051644 C25.3889139,59.7054889 27.1409691,53.1998408 29.0481897,46.3285284 L31.4267795,37.8425577 C32.1276759,35.3633559 32.7788179,33.0773201 33.3135657,31.2112676 C22.1432912,22.4607254 20.0422728,13.448141 23.5565983,6.45241293 L23.6531974,6.26355975 C30.1063488,2.61399802 37.5361105,0.481944896 45.4544896,0.353942174 L46.2116831,0.347826087 Z" id="Path"></path>
            </g>
        </g>
    </g>
</svg>