<svg width="32" height="32" viewBox="0 0 32 32" fill="none" xmlns="http://www.w3.org/2000/svg">
<path fill-rule="evenodd" clip-rule="evenodd" d="M13.6665 22.287H11.8517C8.50474 22.287 5.7915 19.5738 5.7915 16.2268C5.7915 12.8799 8.50474 10.1666 11.8517 10.1666C12.4566 10.1666 13.0616 10.1666 13.6665 10.1666V11.9166L11.8517 11.9166C9.47124 11.9166 7.5415 13.8464 7.5415 16.2268C7.5415 18.6073 9.47124 20.537 11.8517 20.537H13.6665V22.287ZM18.3332 10.1669H20.1479C23.4948 10.1669 26.2081 12.8801 26.2081 16.2271C26.2081 19.574 23.4948 22.2873 20.1479 22.2873H19.1109H18.3332V20.5373H20.1479C22.5283 20.5373 24.4581 18.6075 24.4581 16.2271C24.4581 13.8466 22.5283 11.9169 20.1479 11.9169H18.3332V10.1669ZM13.0832 17.1666H18.9165V15.4166H13.0832V17.1666Z" fill="#1E1E1E"/>
</svg>
